<svg xmlns="http://www.w3.org/2000/svg" viewBox="0 9.949999809265137 194.95787048339844 36.89999771118164" data-asc="0.924" width="194.95787048339844" height="36.89999771118164"><defs/><g><g fill="#000000"><g transform="translate(0, 0)"><path d="M23.40 17.60L14.30 46.15Q14.30 46.35 13.75 46.35Q13.20 46.35 13.15 46.15L3.95 19.10Q3.20 16.95 2.40 16.25Q1.60 15.55 0.15 15.55Q0 15.55 0 15.25Q0 14.95 0.15 14.95Q0.90 14.95 1.20 15Q2.20 15.10 3.80 15.10Q7.35 15.10 10.35 15Q11.20 14.95 12.35 14.95Q12.50 14.95 12.50 15.25Q12.50 15.55 12.35 15.55Q9.65 15.55 9.65 17.75Q9.65 18.65 10.10 20L16.20 38.15L13.70 43.50L22.80 14.95Q22.95 14.80 23.40 14.80Q23.90 14.80 23.95 14.95L33.95 38.35L31.70 43.50L37.60 21.80Q38.05 20.20 38.05 19.05Q38.05 15.55 34.15 15.55Q34.05 15.55 34.05 15.25Q34.05 14.95 34.15 14.95L36.95 15Q39.45 15.10 40.95 15.10Q41.95 15.10 43.25 15L45.40 14.95Q45.50 14.95 45.50 15.25Q45.50 15.55 45.40 15.55Q43.50 15.55 41.75 17.13Q40 18.70 39.25 21.45L32.35 46.15Q32.35 46.35 31.80 46.35Q31.30 46.35 31.25 46.15L21.15 22.35L23.40 17.60ZM56.85 46.80Q53.70 46.80 51.40 45.48Q49.10 44.15 47.90 41.93Q46.70 39.70 46.70 37.10Q46.70 34.20 48.15 31.75Q49.60 29.30 52.18 27.88Q54.75 26.45 58 26.45Q61.10 26.45 62.80 27.85Q64.50 29.25 64.50 32.20Q64.50 33.75 63.95 33.75L59.15 33.75Q59.25 30.70 58.55 29.08Q57.85 27.45 56.10 27.45Q54.10 27.45 52.93 29.50Q51.75 31.55 51.75 34.95Q51.75 39.35 53.78 41.85Q55.80 44.35 59.60 44.35Q60.95 44.35 61.90 44.03Q62.85 43.70 64.40 42.95L64.50 42.90Q64.60 42.90 64.72 43.10Q64.85 43.30 64.75 43.40Q62.90 45.20 61 46Q59.10 46.80 56.85 46.80M49.95 32.85L60.90 32.65L60.90 33.75L50 33.80L49.95 32.85ZM67.75 46.20Q67.65 46.20 67.65 45.90Q67.65 45.60 67.75 45.60Q69.30 45.60 69.88 44.88Q70.45 44.15 70.45 42.15L70.50 16.75Q70.50 15 70.17 14.25Q69.85 13.50 69.05 13.50Q68.40 13.50 67.15 14.05L67.10 14.05Q66.95 14.05 66.83 13.77Q66.70 13.50 66.80 13.45L74.15 10L74.35 9.95Q74.60 9.95 74.90 10.18Q75.20 10.40 75.20 10.60L75.20 42.15Q75.20 44.15 75.75 44.88Q76.30 45.60 77.85 45.60Q78.05 45.60 78.05 45.90Q78.05 46.20 77.85 46.20Q76.60 46.20 75.85 46.15L72.80 46.10L69.80 46.15Q69.05 46.20 67.75 46.20ZM91.10 46.80Q87.80 46.80 85.53 45.38Q83.25 43.95 82.13 41.68Q81 39.40 81 36.90Q81 33.75 82.75 31.38Q84.50 29.00 87.23 27.73Q89.95 26.45 92.80 26.45Q95.20 26.45 97.13 27.45Q99.05 28.45 99.05 30.20Q99.05 31.15 98.33 31.83Q97.60 32.50 96.30 32.50Q95.10 32.50 94.40 31.88Q93.70 31.25 93.25 29.95Q92.80 28.55 92.38 28.03Q91.95 27.50 90.85 27.50Q88.70 27.50 87.43 29.63Q86.15 31.75 86.15 35.25Q86.15 39.40 88 41.88Q89.85 44.35 93.90 44.35Q95.25 44.35 96.23 44.05Q97.20 43.75 98.70 43.05L98.75 43.05Q98.90 43.05 99.03 43.20Q99.15 43.35 99.05 43.45Q97.20 45.15 95.35 45.98Q93.50 46.80 91.10 46.80ZM112.50 46.85Q109.40 46.85 107.08 45.43Q104.75 44 103.50 41.58Q102.25 39.15 102.25 36.30Q102.25 33.05 103.90 30.78Q105.55 28.50 108.10 27.38Q110.65 26.25 113.35 26.25Q116.45 26.25 118.75 27.70Q121.05 29.15 122.28 31.53Q123.50 33.90 123.50 36.60Q123.50 39.60 122 41.93Q120.50 44.25 117.98 45.55Q115.45 46.85 112.50 46.85M114 45.80Q115.95 45.80 116.98 43.88Q118 41.95 118 38.35Q118 34.85 117.10 32.35Q116.20 29.85 114.75 28.58Q113.30 27.30 111.65 27.30Q107.65 27.30 107.65 34.45Q107.65 37.80 108.50 40.38Q109.35 42.95 110.80 44.38Q112.25 45.80 114 45.80ZM153 46.20Q152.85 46.20 152.85 45.90Q152.85 45.60 153 45.60Q154.55 45.60 155.13 44.88Q155.70 44.15 155.70 42.15L155.70 34.95Q155.70 32.25 154.78 30.95Q153.85 29.65 151.95 29.65Q150.40 29.65 148.95 30.40Q147.50 31.15 146.60 32.45L146.35 31.85Q150.15 26.30 154.80 26.30Q157.50 26.30 158.93 27.85Q160.35 29.40 160.35 32.55L160.35 42.15Q160.35 44.15 160.93 44.88Q161.50 45.60 163.05 45.60Q163.25 45.60 163.25 45.90Q163.25 46.20 163.05 46.20Q161.75 46.20 161 46.15L158 46.10L155.10 46.15Q154.30 46.20 153 46.20M139.90 46.20Q139.75 46.20 139.75 45.90Q139.75 45.60 139.90 45.60Q141.45 45.60 142.03 44.88Q142.60 44.15 142.60 42.15L142.60 34.95Q142.60 32.25 141.68 30.95Q140.75 29.65 138.85 29.65Q137.30 29.65 135.85 30.40Q134.40 31.15 133.50 32.45L133.25 31.85Q137.05 26.30 141.70 26.30Q144.35 26.30 145.80 27.78Q147.25 29.25 147.25 32L147.25 42.15Q147.25 44.15 147.83 44.88Q148.40 45.60 149.95 45.60Q150.15 45.60 150.15 45.90Q150.15 46.20 149.95 46.20Q148.65 46.20 147.90 46.15L144.90 46.10L142 46.15Q141.20 46.20 139.90 46.20M127.05 46.20Q126.90 46.20 126.90 45.90Q126.90 45.60 127.05 45.60Q128.60 45.60 129.15 44.88Q129.70 44.15 129.70 42.15L129.70 32.75Q129.70 31.20 129.33 30.48Q128.95 29.75 128.15 29.75Q127.30 29.75 125.75 30.45L125.65 30.45Q125.50 30.45 125.43 30.20Q125.35 29.95 125.45 29.90L132.40 26.50Q132.70 26.40 132.75 26.40Q133.35 26.40 133.88 27.68Q134.40 28.95 134.40 31.05L134.40 42.15Q134.40 44.15 134.98 44.88Q135.55 45.60 137.10 45.60Q137.25 45.60 137.25 45.90Q137.25 46.20 137.10 46.20Q135.80 46.20 135.05 46.15L132.05 46.10L129.10 46.15Q128.35 46.20 127.05 46.20ZM175.70 46.80Q172.55 46.80 170.25 45.48Q167.95 44.15 166.75 41.93Q165.55 39.70 165.55 37.10Q165.55 34.20 167.00 31.75Q168.45 29.30 171.03 27.88Q173.60 26.45 176.85 26.45Q179.95 26.45 181.65 27.85Q183.35 29.25 183.35 32.20Q183.35 33.75 182.80 33.75L178.00 33.75Q178.10 30.70 177.40 29.08Q176.70 27.45 174.95 27.45Q172.95 27.45 171.78 29.50Q170.60 31.55 170.60 34.95Q170.60 39.35 172.63 41.85Q174.65 44.35 178.45 44.35Q179.80 44.35 180.75 44.03Q181.70 43.70 183.25 42.95L183.35 42.90Q183.45 42.90 183.58 43.10Q183.70 43.30 183.60 43.40Q181.75 45.20 179.85 46Q177.95 46.80 175.70 46.80M168.80 32.85L179.75 32.65L179.75 33.75L168.85 33.80L168.80 32.85ZM187.90 15.45Q187.80 15.10 188.95 14.93Q190.10 14.75 191.40 14.75Q192.70 14.75 193.88 14.93Q195.05 15.10 194.95 15.45Q193.85 19.25 193.33 23.75Q192.80 28.25 192.25 35.15Q192.25 35.65 192.15 36.75Q192.15 36.85 191.88 36.93Q191.60 37 191.30 37Q191.00 37 190.73 36.93Q190.45 36.85 190.45 36.75Q190.00 29.35 189.50 24.48Q189.00 19.60 187.90 15.45M191.10 46.75Q189.70 46.75 188.88 45.93Q188.05 45.10 188.05 43.70Q188.05 42.40 188.88 41.60Q189.70 40.80 191.10 40.80Q192.50 40.80 193.28 41.58Q194.05 42.35 194.05 43.70Q194.05 45.15 193.28 45.95Q192.50 46.75 191.10 46.75Z"/></g></g></g></svg>